<?xml version="1.0" encoding="utf-8"?>
<!-- Generator: Adobe Illustrator 21.0.2, SVG Export Plug-In . SVG Version: 6.00 Build 0)  -->
<svg version="1.1" id="Ebene_1" xmlns="http://www.w3.org/2000/svg" xmlns:xlink="http://www.w3.org/1999/xlink" x="0px" y="0px"
	 viewBox="0 0 669.5 361.4" style="enable-background:new 0 0 669.5 361.4;" xml:space="preserve">
<style type="text/css">
	.st0{fill:#EC6528;}
	.st1{fill-rule:evenodd;clip-rule:evenodd;fill:#305290;}
	.st2{fill:#305290;}
	.st3{fill-rule:evenodd;clip-rule:evenodd;fill:#EC6528;}
</style>
<g>
	<path class="st0" d="M520.2,180.2c2-15.4-9-27.2-25.6-26.3l3.1-16.6c23.8,0.7,41.5,19.3,39.1,43.7l-16.8,0.6L520.2,180.2
		L520.2,180.2L520.2,180.2z"/>
	<path class="st0" d="M506,92.7c50-1.6,87.1,35.9,80.6,86.4l-5.6,0.2c6.4-47.8-28.3-83.2-76-81L506,92.7L506,92.7L506,92.7z"/>
	<path class="st0" d="M501.9,115.1c36.7-0.2,63.8,27.8,59.4,65l-11.2,0.4l0.1-1c4.1-31.1-18.4-54.7-50.4-53.4L501.9,115.1
		L501.9,115.1L501.9,115.1z"/>
	<path class="st1" d="M122.4,200.4c0.2-1.1,0.6-2,1.2-2.5c0.6-0.6,1.5-0.9,2.5-0.9c1.1,0,1.8,0.2,2.3,0.7c0.5,0.5,0.6,1.4,0.5,2.5
		l-3.9,27.9c-0.2,1.1-0.6,2-1.2,2.5c-0.6,0.6-1.5,0.8-2.5,0.8c-1,0-1.8-0.3-2.3-0.8c-0.5-0.5-0.6-1.4-0.5-2.5L122.4,200.4
		L122.4,200.4L122.4,200.4z M102.5,244.4h13.1l0.9-6.2h0.2c0.9,3,2,5,3.4,5.9c1.4,0.9,3.2,1.3,5.6,1.3c4.3,0.1,7.5-1.1,9.6-3.6
		c2.1-2.5,3.6-6.9,4.4-13l4.9-34.3c0.6-4.7,0-7.9-1.7-9.7c-1.7-1.7-4.2-2.5-7.3-2.3c-2.5,0.1-4.7,0.8-6.5,2
		c-1.8,1.2-3.4,2.8-4.8,4.9l-0.2,0l4.3-31l-14,1L102.5,244.4L102.5,244.4L102.5,244.4z"/>
	<path class="st1" d="M141.7,244.4h14.6l9.1-62.4l-14.8,0.7L141.7,244.4L141.7,244.4L141.7,244.4z M152.2,171l14.9-0.9l2.1-14.6
		l-14.9,1L152.2,171L152.2,171L152.2,171z"/>
	<polygon class="st2" points="160.7,244.4 175.8,244.4 189.1,154.2 173.7,155.2 160.7,244.4 160.7,244.4 	"/>
	<polygon class="st2" points="180.3,244.4 195.8,244.4 209.6,152.7 193.7,153.8 180.3,244.4 180.3,244.4 	"/>
	<path class="st1" d="M200.5,244.4h16l9.9-65.4l-16.3,0.8L200.5,244.4L200.5,244.4L200.5,244.4z M212.1,167.5l16.3-0.9l2.3-15.3
		l-16.4,1.1L212.1,167.5L212.1,167.5L212.1,167.5z"/>
	<path class="st1" d="M245.5,195.5c0.2-1.4,0.7-2.5,1.4-3.1c0.8-0.6,1.9-1,3.4-1c1.5-0.1,2.6,0.2,3.2,0.8c0.6,0.6,0.7,1.6,0.5,3
		l-5,32c-0.2,1.4-0.7,2.4-1.4,3c-0.8,0.6-1.9,0.9-3.4,0.9c-1.5,0-2.6-0.3-3.1-0.8c-0.6-0.6-0.7-1.6-0.5-3L245.5,195.5L245.5,195.5
		L245.5,195.5z M223.7,229c-0.8,4.5-0.4,8.2,1,11.3c1.5,3,4.7,4.6,9.8,4.7c2.5,0,4.8-0.5,6.9-1.5c2.1-1,4-2.6,5.6-4.6h0.2l-1.8,11.9
		c-0.3,1.7-0.8,2.9-1.6,3.5c-0.8,0.6-1.9,0.9-3.5,0.9c-1.5,0-2.6-0.3-3.2-0.7c-0.6-0.5-0.8-1.2-0.7-2.3l0.2-1.4l-14.5-0.1l-0.5,3.4
		c-0.8,4.3-0.1,7.8,2.1,10.5c2.2,2.6,6.4,4.1,12.9,4.2c7.6,0.3,13.6-0.8,17.8-3.3c4.3-2.6,7-7.6,8.1-15l11.6-73.7l-16.2,0.8l-1,6.2
		l-0.2,0c-1.4-2.7-3.1-4.5-5.1-5.5c-2-0.9-4.7-1.3-8-1.1c-3.9,0.2-7.2,1.8-9.7,4.9c-2.5,3-4.2,7.4-5.1,13.1L223.7,229L223.7,229
		L223.7,229z"/>
	<path class="st1" d="M270.8,224c-0.9,6-0.8,10.5,0.5,13.6c1.3,3.1,3.6,5.2,6.8,6.3c3.3,1.1,7.5,1.6,12.7,1.5
		c9.1,0.1,15.6-1.1,19.7-3.8c4.1-2.7,6.6-7.7,7.6-14.9l0.7-4l-18.8,0.3l-0.5,3.2c-0.3,2-0.9,3.3-1.9,4c-0.9,0.7-2.3,1-4.1,1
		c-2.3,0.1-3.7-0.3-4.3-1c-0.6-0.7-0.7-1.9-0.4-3.7l1.9-11.6l29.5-0.6l3.6-21.8c0.7-3.7,0.6-7-0.2-9.9c-0.8-2.9-2.9-5.1-6.3-6.6
		c-3.3-1.5-8.3-2.1-15-1.8c-5.2,0.2-9.7,0.9-13.4,2.2c-3.7,1.3-6.7,3.5-9,6.8c-2.3,3.2-3.9,7.9-4.9,13.9L270.8,224L270.8,224
		L270.8,224z M294.4,192.1c0.2-1.4,0.7-2.5,1.5-3.1c0.8-0.7,2.2-1.1,4.3-1.1c2.1-0.1,3.4,0.2,4,0.8c0.6,0.6,0.7,1.7,0.5,3.1
		l-1.6,10.2l-10.1,0.3L294.4,192.1L294.4,192.1L294.4,192.1z"/>
	<path class="st2" d="M319.7,244.4h19.1l8.7-52.2c0.3-1.5,0.8-2.5,1.6-3.1c0.8-0.6,1.8-0.9,3-0.9c1.1-0.1,2,0.1,2.7,0.5
		c0.7,0.4,1,1.1,0.8,2.2l-1.8,10.7l16.7-0.5l3.3-19.7c0.6-4.4,0-7.3-1.8-8.7c-1.8-1.4-4.6-1.9-8.2-1.6c-3.8,0.1-6.7,0.8-9,2.1
		c-2.2,1.3-4.2,3.6-6,6.9l-0.3,0l1.2-7.2l-18.6,0.9L319.7,244.4L319.7,244.4L319.7,244.4z"/>
	<polygon class="st2" points="352.4,244.4 372.4,244.4 376.1,222.5 356,222.8 352.4,244.4 352.4,244.4 	"/>
	<path class="st3" d="M382,225.7c-1.3,7.4-1,12.5,0.9,15.5c2,3,6.1,4.5,12.3,4.4c3.6,0.1,6.7-0.4,9.2-1.5c2.5-1.1,5.1-3.6,7.8-7.4
		l0.3,0l-1.3,7.7h20.6L450.9,136l-22.1,1.5l-6.7,38.5l-0.3,0c-1.3-2.5-3.1-4.3-5.4-5.5c-2.3-1.2-5.3-1.7-9.1-1.6
		c-4.6,0.1-8.5,1.4-11.8,3.7c-3.3,2.3-5.4,6.3-6.5,12L382,225.7L382,225.7L382,225.7z M409.8,190.2c0.2-1.4,0.8-2.4,1.8-3.2
		c1-0.7,2.2-1.1,3.8-1.2c1.6-0.1,2.8,0.2,3.5,0.9c0.7,0.6,1,1.7,0.7,3.1l-6,34.5c-0.2,1.4-0.9,2.4-1.8,3.1c-1,0.7-2.2,1-3.8,1
		c-1.6,0-2.7-0.3-3.5-1c-0.7-0.7-1-1.7-0.7-3.1L409.8,190.2L409.8,190.2L409.8,190.2z"/>
	<path class="st3" d="M441,221.5c-1.2,6.7-1,11.8,0.6,15.3c1.6,3.5,4.5,5.8,8.6,7.1c4.2,1.2,9.5,1.8,16.1,1.7
		c11.5,0.2,19.8-1.3,25-4.3c5.2-3.1,8.4-8.7,9.7-16.8l0.8-4.5l-23.9,0.4l-0.7,3.7c-0.4,2.2-1.2,3.7-2.4,4.5
		c-1.2,0.8-2.9,1.1-5.2,1.1c-2.9,0.1-4.7-0.3-5.4-1.1c-0.7-0.8-0.9-2.2-0.4-4.2l2.3-13.1l37.4-0.8l4.5-24.6
		c0.9-4.2,0.8-7.9-0.3-11.2c-1.1-3.2-3.7-5.7-8-7.4c-4.2-1.7-10.6-2.3-19-2c-6.6,0.2-12.3,1.1-17,2.6c-4.7,1.5-8.5,4-11.3,7.7
		c-2.9,3.6-4.9,8.8-6.1,15.6L441,221.5L441,221.5L441,221.5z M470.8,185.6c0.2-1.6,0.8-2.8,1.8-3.5c1-0.8,2.8-1.2,5.4-1.3
		c2.6-0.1,4.3,0.2,5.1,0.9c0.8,0.7,0.9,1.9,0.6,3.5l-2.1,11.6l-12.9,0.4L470.8,185.6L470.8,185.6L470.8,185.6z"/>
</g>
</svg>
