<svg xmlns="http://www.w3.org/2000/svg" width="474.135" height="160" viewBox="44.955 56.377 474.135 160" enable-background="new 44.955 56.377 474.135 160"><linearGradient id="a" gradientUnits="userSpaceOnUse" x1="466.097" y1="-207.968" x2="766.689" y2="-207.968" gradientTransform="matrix(1 0 0 -1 -247.6 -87.436)"><stop offset="0" stop-color="#F0EFEE"/><stop offset=".15" stop-color="#E6E5E4"/><stop offset=".4" stop-color="#CECCCB"/><stop offset=".719" stop-color="#AAA8A9"/><stop offset="1" stop-color="#888A8A"/></linearGradient><path fill="url(#a)" d="M218.497 111.176c184.42-88.327 300.593 48.424 300.593 48.424s-105.49-107.541-300.593-48.424z"/><path fill="#E01F26" d="M218.405 111.217c-38.051 12.12-77.849 29.687-122.56 57.407l-50.891-19.108 50.236 41.774c44.314-37.007 85.429-62.81 123.215-80.073z"/><path fill="#253676" d="M96.756 124.724c3.733-.18 7.622.602 10.71 2.789 1.921 1.318 3.374 3.539 3.278 5.928-.122 2.33-1.63 4.398-3.55 5.625-3.054 2.057-6.836 2.773-10.473 2.6-3.825-.252-7.942-1.557-10.381-4.68-1.822-2.248-1.687-5.691.204-7.85 2.507-2.928 6.464-4.203 10.212-4.412zm56.162 65.566v-10.093l-12.878-12.461h7.694l8.514 8.662 8.538-8.662h6.778l-12.83 12.332v10.222h-5.816zm21.36 0v-18.479h18.54c1.71 0 2.941.281 3.696.844.752.563 1.128 1.476 1.128 2.742v4.097c0 1.267-.38 2.18-1.142 2.741-.76.563-1.987.844-3.683.844h-13.596v7.212h-4.943v-.001zm16.4-15.299h-11.456v4.907h11.456c.87 0 1.47-.113 1.794-.342.324-.228.486-.611.486-1.152v-1.92c0-.541-.162-.926-.486-1.152-.325-.227-.923-.341-1.794-.341zm30.548.128h-14.117v3.904h13.357c2.102 0 3.514.303 4.24.906.727.604 1.089 1.754 1.089 3.446v2.539c0 1.692-.371 2.845-1.112 3.456-.743.611-2.148.918-4.217.918h-13.311c-2.116 0-3.549-.307-4.298-.918-.75-.611-1.125-1.764-1.125-3.456v-.513l4.452-.746v2.176h15.089v-4.225h-13.288c-2.1 0-3.521-.311-4.263-.928-.743-.619-1.114-1.769-1.114-3.447v-2.069c0-1.664.371-2.806 1.114-3.425.74-.618 2.163-.928 4.263-.928h12.174c2.069 0 3.485.295 4.251.885.768.591 1.149 1.633 1.149 3.127v.447l-4.334.832v-1.981zm10.751 15.171v-18.479h5.118v18.479h-5.118zm11.634 0v-18.479h5.118v15.021h16.313v3.457l-21.431.001zm24.233-14.126c0-1.678.363-2.823 1.092-3.436.727-.611 2.143-.918 4.246-.918h15.896c2.119 0 3.539.307 4.258.918.722.611 1.08 1.758 1.08 3.436v9.752c0 1.691-.367 2.846-1.104 3.456-.734.612-2.146.918-4.234.918h-15.896c-2.104 0-3.521-.306-4.246-.918-.729-.61-1.093-1.765-1.093-3.456l.001-9.752zm5.006 10.584h16.561v-11.544h-16.561v11.544zm27.491 3.542v-18.479h3.416l17.315 12.271v-12.271h4.5v18.479h-3.44l-17.269-12.461v12.461h-4.522zm37.134-6.765h.885c.433 0 .734.111.91.33.176.222.264.645.264 1.271v3.542c0 .684-.098 1.124-.287 1.323-.192.198-.782.299-1.771.299h-4.377c-.432 0-.734-.112-.91-.343-.176-.227-.262-.652-.262-1.279v-3.542c0-.668.096-1.103.287-1.302.188-.198.78-.299 1.77-.299h3.491zm10.129 6.765v-22.554h3.973l17.586 13.293c.599.441 1.127.857 1.584 1.248.457.392.875.793 1.252 1.205-.094-1.266-.157-2.162-.188-2.688-.033-.525-.049-.932-.049-1.217v-11.842h5.225v22.554h-3.971l-18.344-13.935c-.441-.354-.826-.676-1.158-.959-.33-.285-.639-.576-.922-.875.078.697.139 1.354.178 1.974s.059 1.155.059 1.61v12.185h-5.225v.001zm38.071 0v-18.479h22.188v3.266h-17.102v4.033h9.961v3.179h-9.961v4.545h17.362v3.457h-22.448zm39.248-15.175v15.175h-5.031v-15.175h-9.912v-3.305h24.896v3.305h-9.953zm18.328 15.175l14.145-22.554h5.605l14.334 22.554h-6.527l-3.006-4.929h-15.847l-2.909 4.929h-5.795zm11.187-9.005h10.951l-5.394-9.176-5.557 9.176zm51.406-9.515h-18.14v14.274h18.14v-5.015h-9.492v-3.842h15.137v7.769c0 2.063-.424 3.467-1.272 4.214-.853.747-2.488 1.12-4.914 1.12h-17.22c-2.422 0-4.061-.373-4.911-1.12s-1.275-2.15-1.275-4.214v-11.886c0-2.049.426-3.449 1.275-4.203.852-.754 2.489-1.131 4.911-1.131h17.22c2.393 0 4.022.369 4.891 1.109.865.738 1.297 2.076 1.297 4.012v.512l-5.645.917-.002-2.516z"/></svg>